<svg xmlns="http://www.w3.org/2000/svg" viewBox="0 0 120 120">
  <g>
    <path d="M60,0h0C26.86,0,0,26.86,0,60h0c0,33.14,26.86,60,60,60h0c33.14,0,60-26.86,60-60h0C120,26.86,93.14,0,60,0ZM95.77,58.29c-1.68,3.7-4.11,6.97-7.09,9.6,1.06.99,1.73,2.39,1.73,3.95,0,2.97-2.42,5.39-5.39,5.39-2.54,0-4.67-1.76-5.24-4.13-2.48.84-5.05,1.29-7.65,1.29h-14.69c-1.32,0-2.64-.12-3.93-.34.12.6.18,1.23.18,1.87,0,5.35-4.35,9.7-9.7,9.7s-9.7-4.35-9.7-9.7c0-3.93,2.35-7.31,5.71-8.83-4.65-4.47-7.67-10.44-8.5-16.85l-.18-1.38h-4.72c-1.43,0-2.6-1.16-2.6-2.6s1.16-2.6,2.6-2.6h7c1.3,0,2.41.97,2.58,2.26l.48,3.64c1.39,10.62,9.93,19.02,19.72,19.6,0-2.06.12-4.02.33-5.9,0,0,0,0,0,0-1.76-.26-3.47-.79-5.07-1.56-2.41-1.16-4.57-2.88-6.26-5.03-1.69-2.17-2.83-4.68-3.38-7.3-.53-2.63-.49-5.37.2-8.03.23-.87.92-1.54,1.8-1.75h0c1.96-.45,3.99-.43,5.91,0,1.92.45,3.76,1.31,5.33,2.59,1.57,1.27,2.82,2.87,3.67,4.65.1.25.22.49.3.74-1.01,1.53-1.89,3.21-2.64,5.01l-.95,2.61c.07-3.27-.55-5.16-1.08-6.3-.53-1.13-1.31-2.15-2.33-2.95-1-.81-2.15-1.36-3.37-1.65-.75-.16-1.5-.23-2.27-.2-.2,1.44-.14,2.9.14,4.31.4,1.91,1.23,3.71,2.46,5.29,1.23,1.57,2.79,2.82,4.54,3.66,1.18.58,2.46.95,3.77,1.14-.1.45-.19.91-.28,1.38,1.02-5.4,2.97-10,5.84-13.79,4.52-5.95,11.24-9.82,20.15-11.64,1.33-.27,2.62.61,2.84,1.95h0c.1.56.19,1.17.25,1.82.61,6.21-1.13,12.42-4.67,17.37-3.57,4.96-8.94,8.65-15.6,9.8-.56.1-1.17.19-1.83.25.16-1.73.4-3.38.75-4.96.09-.01.17-.03.26-.06,5.33-.91,9.64-3.87,12.48-7.86,2.67-3.71,4.07-8.31,3.89-12.96-6.44,1.73-11.33,4.8-14.68,9.2-3.76,4.95-5.66,11.7-5.69,20.2h10.94c7.89,0,15.32-5.12,18.91-13.04.59-1.31,2.13-1.89,3.44-1.29,1.31.59,1.89,2.13,1.29,3.44Z" fill="#a3cd39"/>
    <path d="M85.99,69.98c-1,.68-2.02,1.29-3.07,1.81,0,.01,0,.03,0,.04,0,1.16.94,2.1,2.1,2.1s2.1-.94,2.1-2.1c0-.81-.46-1.5-1.13-1.85Z" fill="#a3cd39"/>
    <path d="M43.99,71.08c-2.66,0-4.83,2.17-4.83,4.83s2.17,4.83,4.83,4.83,4.83-2.17,4.83-4.83-2.17-4.83-4.83-4.83Z" fill="#a3cd39"/>
  </g>
  <path d="M95.77,58.29c.59-1.31.01-2.85-1.29-3.44-1.31-.59-2.85-.01-3.44,1.29-3.59,7.92-11.01,13.04-18.91,13.04h-10.94c.03-8.51,1.93-15.25,5.69-20.2,3.35-4.41,8.24-7.47,14.68-9.2.19,4.65-1.21,9.25-3.89,12.96-2.85,3.99-7.15,6.95-12.48,7.86-.09.03-.17.04-.26.06-.35,1.57-.59,3.22-.75,4.96.66-.06,1.27-.14,1.83-.25,6.66-1.14,12.03-4.84,15.6-9.8,3.54-4.94,5.27-11.15,4.67-17.37-.06-.65-.14-1.26-.25-1.81h0c-.23-1.35-1.52-2.23-2.84-1.96-8.91,1.82-15.63,5.69-20.15,11.64-2.87,3.79-4.82,8.39-5.84,13.79.09-.47.18-.93.28-1.38-1.31-.19-2.59-.56-3.77-1.14-1.75-.84-3.31-2.08-4.54-3.66-1.23-1.57-2.05-3.38-2.46-5.29-.29-1.4-.35-2.86-.14-4.31.77-.03,1.52.04,2.27.2,1.21.29,2.37.84,3.37,1.65,1.01.79,1.79,1.82,2.33,2.95.53,1.14,1.16,3.03,1.08,6.3l.95-2.61c.75-1.81,1.63-3.48,2.64-5.01-.09-.25-.2-.49-.3-.74-.85-1.78-2.09-3.38-3.67-4.65-1.57-1.27-3.41-2.14-5.33-2.59-1.92-.43-3.94-.45-5.91,0h0c-.88.2-1.57.88-1.8,1.75-.69,2.66-.74,5.4-.2,8.03.55,2.61,1.69,5.13,3.38,7.3,1.69,2.15,3.84,3.87,6.26,5.03,1.6.77,3.31,1.3,5.07,1.56,0,0,0,0,0,0-.21,1.88-.32,3.85-.33,5.9-9.78-.58-18.33-8.98-19.72-19.6l-.48-3.64c-.17-1.29-1.27-2.26-2.58-2.26h-7c-1.43,0-2.6,1.16-2.6,2.6s1.16,2.6,2.6,2.6h4.72l.18,1.38c.84,6.41,3.85,12.38,8.5,16.85-3.36,1.52-5.71,4.91-5.71,8.83,0,5.35,4.35,9.7,9.7,9.7s9.7-4.35,9.7-9.7c0-.64-.07-1.26-.18-1.87,1.3.22,2.61.34,3.93.34h14.69c2.6,0,5.17-.44,7.65-1.29.57,2.37,2.7,4.13,5.24,4.13,2.97,0,5.39-2.42,5.39-5.39,0-1.56-.67-2.96-1.73-3.95,2.99-2.63,5.41-5.89,7.09-9.6ZM43.99,80.74c-2.66,0-4.83-2.17-4.83-4.83s2.17-4.83,4.83-4.83,4.83,2.17,4.83,4.83-2.17,4.83-4.83,4.83ZM85.01,73.94c-1.16,0-2.1-.94-2.1-2.1,0-.01,0-.03,0-.04,1.05-.53,2.08-1.13,3.07-1.81.67.35,1.13,1.05,1.13,1.85,0,1.16-.94,2.1-2.1,2.1Z" fill="#201e5a"/>
</svg>